<?xml version="1.0" encoding="UTF-8"?>
<svg xmlns="http://www.w3.org/2000/svg" viewBox="0 0 200 90" width="200" height="90">
  <defs>
    <linearGradient id="cnscGrad" x1="0%" y1="0%" x2="100%" y2="100%">
      <stop offset="0%" stop-color="#E63946"/>
      <stop offset="50%" stop-color="#F4A261"/>
      <stop offset="100%" stop-color="#1D3557"/>
    </linearGradient>
  </defs>
  <g transform="translate(10,15)">
    <path d="M30 5 L55 5 L60 15 L60 45 Q60 55 50 60 L30 60 Q20 60 15 50 L15 20 Q15 10 25 8 Z" fill="url(#cnscGrad)" opacity="0.92"/>
    <path d="M20 25 L45 25 M20 32 L40 32 M20 39 L50 39 M20 46 L35 46" stroke="#fff" stroke-width="1.5" stroke-linecap="round"/>
    <circle cx="48" cy="14" r="4" fill="#FFD60A"/>
    <path d="M48 10 L48 18 M44 14 L52 14" stroke="#1D3557" stroke-width="1.2" stroke-linecap="round"/>
  </g>
  <text x="78" y="32" font-family="Arial, Helvetica, sans-serif" font-size="22" font-weight="900" fill="#1D3557" letter-spacing="1">CNSC</text>
  <text x="78" y="46" font-family="Arial, Helvetica, sans-serif" font-size="6.5" font-weight="700" fill="#1D3557" letter-spacing="0.3">COMISIÓN NACIONAL</text>
  <text x="78" y="55" font-family="Arial, Helvetica, sans-serif" font-size="6.5" font-weight="700" fill="#1D3557" letter-spacing="0.3">DEL SERVICIO CIVIL</text>
  <text x="78" y="66" font-family="Arial, Helvetica, sans-serif" font-size="5.5" font-style="italic" fill="#666" letter-spacing="0.2">Igualdad, Mérito y Oportunidad</text>
</svg>